<svg width="59" height="62" viewBox="0 0 59 62" fill="none" xmlns="http://www.w3.org/2000/svg">
<path d="M51.2316 11.9091C49.9759 10.589 48.4851 9.54187 46.8443 8.82742C45.2035 8.11297 43.4448 7.74524 41.6686 7.74524C39.8925 7.74524 38.1338 8.11297 36.493 8.82742C34.8521 9.54187 33.3613 10.589 32.1057 11.9091L29.4999 14.6475L26.8941 11.9091C24.3578 9.24392 20.9179 7.74662 17.3311 7.74662C13.7443 7.74662 10.3045 9.24392 7.76822 11.9091C5.23198 14.5743 3.80713 18.1891 3.80713 21.9583C3.80713 25.7275 5.23198 29.3423 7.76822 32.0075L29.4999 54.8441L51.2316 32.0075C52.4878 30.688 53.4843 29.1214 54.1641 27.3971C54.844 25.6729 55.194 23.8247 55.194 21.9583C55.194 20.0919 54.844 18.2437 54.1641 16.5195C53.4843 14.7952 52.4878 13.2286 51.2316 11.9091Z" stroke="#1E1E1E" stroke-width="4" stroke-linecap="round" stroke-linejoin="round"/>
</svg>
