<svg width="49" height="310" viewBox="0 0 49 310" fill="none" xmlns="http://www.w3.org/2000/svg">
<rect x="2" y="10" width="35" height="300" fill="#2F2B2C"/>
<line x1="36" y1="9.99333" x2="38" y2="309.993" stroke="#C8CC15" stroke-width="2"/>
<line x1="0.999978" y1="9.99333" x2="2.99998" y2="309.993" stroke="#C8CC15" stroke-width="2"/>
<path d="M8.99994 18.4999L44.5 18.5L39.8241 31.6738L5.41147 31.4489L8.99994 18.4999Z" fill="white"/>
<path d="M12.7562 18.517L16.2563 18.5167L14.7563 22.5167L11.2562 22.5169L12.7562 18.517Z" fill="black"/>
<path d="M19.7562 18.517L23.2563 18.5167L21.7563 22.5167L18.2562 22.5169L19.7562 18.517Z" fill="black"/>
<path d="M26.7562 18.517L30.2563 18.5167L28.7563 22.5167L25.2562 22.5169L26.7562 18.517Z" fill="black"/>
<line x1="36.0637" y1="42.6489" x2="45.0637" y2="18.6489" stroke="white" stroke-width="2"/>
<line x1="1.06367" y1="42.6489" x2="10.0637" y2="18.6489" stroke="white" stroke-width="2"/>
<path d="M7.75616 22.517L11.2563 22.5167L9.75635 26.5167L6.25621 26.5169L7.75616 22.517Z" fill="black"/>
<path d="M14.7562 22.517L18.2563 22.5167L16.7563 26.5167L13.2562 26.5169L14.7562 22.517Z" fill="black"/>
<path d="M21.7562 22.517L25.2563 22.5167L23.7563 26.5167L20.2562 26.5169L21.7562 22.517Z" fill="black"/>
<path d="M28.7562 22.517L32.2563 22.5167L30.7563 26.5167L27.2562 26.5169L28.7562 22.517Z" fill="black"/>
<path d="M33.7562 18.517L37.2563 18.5167L35.7563 22.5167L32.2562 22.5169L33.7562 18.517Z" fill="black"/>
<path d="M35.7562 22.517L39.2563 22.5167L37.7563 26.5167L34.2562 26.5169L35.7562 22.517Z" fill="black"/>
<path d="M40.7562 18.517L44.2563 18.5167L42.7563 22.5167L39.2562 22.5169L40.7562 18.517Z" fill="black"/>
<path d="M37.7562 26.517L41.2563 26.5167L39.7563 30.5167L36.2562 30.5169L37.7562 26.517Z" fill="black"/>
<path d="M30.7562 26.517L34.2563 26.5167L32.7563 30.5167L29.2562 30.5169L30.7562 26.517Z" fill="black"/>
<path d="M23.7562 26.517L27.2563 26.5167L25.7563 30.5167L22.2562 30.5169L23.7562 26.517Z" fill="black"/>
<path d="M16.7562 26.517L20.2563 26.5167L18.7563 30.5167L15.2562 30.5169L16.7562 26.517Z" fill="black"/>
<path d="M9.75616 26.517L13.2563 26.5167L11.7563 30.5167L8.25621 30.5169L9.75616 26.517Z" fill="black"/>
</svg>
