<svg width="98" height="99" viewBox="0 0 98 99" fill="none" xmlns="http://www.w3.org/2000/svg">
<path d="M75.1213 48.1213C76.2929 46.9497 76.2929 45.0503 75.1213 43.8787L56.0294 24.7868C54.8579 23.6152 52.9584 23.6152 51.7868 24.7868C50.6152 25.9584 50.6152 27.8579 51.7868 29.0294L68.7574 46L51.7868 62.9706C50.6152 64.1421 50.6152 66.0416 51.7868 67.2132C52.9584 68.3848 54.8579 68.3848 56.0294 67.2132L75.1213 48.1213ZM27 49H73V43H27V49Z" fill="white"/>
<g filter="url(#filter0_d_114_150)">
<rect width="90" height="91" rx="20" transform="matrix(-1 0 0 1 94 0)" fill="#D9D9D9" fill-opacity="0.3" shape-rendering="crispEdges"/>
</g>
<defs>
<filter id="filter0_d_114_150" x="0" y="0" width="98" height="99" filterUnits="userSpaceOnUse" color-interpolation-filters="sRGB">
<feFlood flood-opacity="0" result="BackgroundImageFix"/>
<feColorMatrix in="SourceAlpha" type="matrix" values="0 0 0 0 0 0 0 0 0 0 0 0 0 0 0 0 0 0 127 0" result="hardAlpha"/>
<feOffset dy="4"/>
<feGaussianBlur stdDeviation="2"/>
<feComposite in2="hardAlpha" operator="out"/>
<feColorMatrix type="matrix" values="0 0 0 0 0 0 0 0 0 0 0 0 0 0 0 0 0 0 0.25 0"/>
<feBlend mode="normal" in2="BackgroundImageFix" result="effect1_dropShadow_114_150"/>
<feBlend mode="normal" in="SourceGraphic" in2="effect1_dropShadow_114_150" result="shape"/>
</filter>
</defs>
</svg>
