<svg width="98" height="99" viewBox="0 0 98 99" fill="none" xmlns="http://www.w3.org/2000/svg">
<path d="M50.0767 19.835C48.881 18.688 46.9819 18.7276 45.835 19.9233L27.1449 39.4087C25.998 40.6044 26.0375 42.5035 27.2332 43.6504C28.429 44.7974 30.328 44.7578 31.475 43.5621L48.0884 26.2417L65.4087 42.8551C66.6044 44.002 68.5035 43.9625 69.6504 42.7668C70.7974 41.571 70.7578 39.672 69.5621 38.525L50.0767 19.835ZM51.9993 69.9375L50.9993 21.9375L45.0007 22.0625L46.0007 70.0625L51.9993 69.9375Z" fill="white"/>
<g filter="url(#filter0_d_114_144)">
<rect x="4" width="90" height="91" rx="20" fill="#D9D9D9" fill-opacity="0.3" shape-rendering="crispEdges"/>
</g>
<defs>
<filter id="filter0_d_114_144" x="0" y="0" width="98" height="99" filterUnits="userSpaceOnUse" color-interpolation-filters="sRGB">
<feFlood flood-opacity="0" result="BackgroundImageFix"/>
<feColorMatrix in="SourceAlpha" type="matrix" values="0 0 0 0 0 0 0 0 0 0 0 0 0 0 0 0 0 0 127 0" result="hardAlpha"/>
<feOffset dy="4"/>
<feGaussianBlur stdDeviation="2"/>
<feComposite in2="hardAlpha" operator="out"/>
<feColorMatrix type="matrix" values="0 0 0 0 0 0 0 0 0 0 0 0 0 0 0 0 0 0 0.25 0"/>
<feBlend mode="normal" in2="BackgroundImageFix" result="effect1_dropShadow_114_144"/>
<feBlend mode="normal" in="SourceGraphic" in2="effect1_dropShadow_114_144" result="shape"/>
</filter>
</defs>
</svg>
